/* XPM */
static char *_a22ecda4ef64823fbf6c1b7d35180bc7sAjZhOPo8V8NsSd[] = {
/* columns rows colors chars-per-pixel */
"64 64 48 1 ",
"  c #634422",
". c #644523",
"X c #664725",
"o c #674825",
"O c #674826",
"+ c #674827",
"@ c #684926",
"# c #684827",
"$ c #694A28",
"% c #6B4A28",
"& c #6C4B28",
"* c #6B4C2B",
"= c #6D4D2A",
"- c #754F29",
"; c #76502A",
": c #77512B",
"> c #79522B",
", c #79532C",
"< c #7A532C",
"1 c #7C532D",
"2 c #7B552E",
"3 c #7E552C",
"4 c #7C562F",
"5 c #7C5630",
"6 c #7E5832",
"7 c #81572D",
"8 c #80562E",
"9 c #80572F",
"0 c #81582F",
"q c #83592E",
"w c #865B2F",
"e c #815730",
"r c #815933",
"t c #835A32",
"y c #845A32",
"u c #875C31",
"i c #875D32",
"p c #855C34",
"a c #8B5D31",
"s c #8B5E32",
"d c #8C5F33",
"f c #8E5F33",
"g c #8D6033",
"h c #8D6034",
"j c #8F6034",
"k c #906236",
"l c #906337",
"z c #916438",
/* pixels */
"XXXXXoooo@@@@@@$$@$@@@@@@@$@@@@$@XXXo@@$X$$$@$@$@@$@@@$&$$@@@@@O",
"dddsddhhhhhhhhhhhhllllzhhhhhhhhzlllhhzhdssdsddssssssssd$$dddldfd",
"ttttttttttt09ttttettt9t99tt9tettttet9ttet9ttt9t99tttesh$$ds49eyy",
"225422,2,,,,,,,,,,,,,,,,,,2,,,>,,,,,,,2222222222222,4yl$$lt,,>,>",
",,,,,,,,,,,,,,,,,,2,2,,2,2,2,,,,2,,,,,,,,,,,,,,,,,,1,9h@@g04,,,,",
"2,,,2,,,2,,,,,,2,2,222,,,22,22222,222,,22,,,2,2,,24459d@@d92eee4",
",,,2,2222,,2,22,,,,,,,,,,,,:,,,,,,,,,,2,2,2,,:,,,,599sd@@lwtuyy4",
",22,2,,,2,2,2,2,,,2,,222,,::::-:,,,2,,2,2,,2,,,,,,49odh$@duyOOu4",
",222,22,,:,:,:::,,::::,,,,445,,,,,,2,2,,,,,,22224,9y$sz@@lyyOOw4",
",::::::,,,,2,2,2,,,,,,,,,4,,,4552,,,,,2,222,,2,:>>494ts@@dywdyw9",
",,,22222225222552552552,,,,,,,,,,2222,,,,,:,,,,2>,<<49fo@l0495,1",
",2,,:,:,,,,,,,:,,,,:,,,21444,4,,,,,,2,,,,,,,:,2244,44yl$@d9>>,,>",
"2,,,,,,,,:,::-::,,,>,,,,,,,,,,4,2,,,,2,,222,2,,,>,>,:2do#ft5,4,4",
"tttttttttttttttttytty9yyyeteeyey9tyyeyttttttttttee9etsd$$ffse999",
"ssdhhhhhhhhlhlhhhhhlfhhhhhdfhhhfhhhhhhhhdddfdhhhhlllzzl==$hhhfdd",
"$$$$$$$@@oo@$@$$@@@@@$$$$$$$$$$&$$$$$@$$X@$@X@$$$$$@@o*===&$$$&@",
"$$@@@oXXXXXXXX@o$@$@oXo@@@@X@$$@OXOO...@@@$@@@XX@@@@X@@oo$XXXXX#",
"sssdhlhhhghhhhhdssshhghhdddsdlh$@ddddhhhhhhdhdsdhhhdddffssssfdsd",
"t9990ttyttttytttttttyypt94949dd$$ldyyyyyyttett5ty999t95ttttttttt",
",,222,,2222,,,:,22,,,:,:,>>>>9f@@fy,,,,,>,,>,,,,,>>,,,,2,5,,,22,",
",,2,,,,,,2,,,2,,,,:,,,,2,51440h$$hy,,,,1,2222525,,,,,,,22,2,,2,,",
"55222222,2,222222,22222255499yh@$fy4944,2,,,,,,,245522222,525,55",
":,,2,222222222222222222,,5yywdd@Odw9e1,::,,,,:::>,:,22,,,,:::-:-",
":::::---:,,,,,,:,:::::::>2w@@sl@Ody9o95,,,,,,,,,,,,,,,,::::,,,,,",
"522,,,,,,,:::::::,,,2,2,25i==dl@Oldy@yy42222225522422424222,2555",
",2,225552,,,22222222,::::>49wwd@@d99499,2,2,,,2,,,,,,,,,,,2,,,,2",
",,2,,,,,,,2,,:::,,:,2,,,>4444yk@Ody441,,,:>>:>:,,,>:,,,>,,,2,,,,",
",,,,,2,,222,,::,,:,2555544494yd@@d911,,,,,,,2,,:,4422,,22,,,,,2,",
",,,,,,,,,2,22252,,,,,,:,,,>,,9g@Od9,,,,,,,,2245,,,,,,2,,,,,,,22,",
"tttttttt9ttttttttttt0ttt0y0yydg@@lfyyey99999999yyy944y99etttte9e",
"hhhhshhhghhhhhhhhhhhhhhhgldgddd=&dddlddlllllhhhddhldhhhddhhhhhhh",
"@$@@o@@@o@$@@@@@o$@@o@$@@@@@XX@@$O@O@@@@@@@$@$@=@@@@$*$$$$$$$$$$",
"$ooo@ooo@$@@@$@o$$$o@$@o@o@o$$=$&&$$$$$$$$$$$$$$$$$$O@@&&$O$@O$@",
"dsfsfhhdhhhhhhhhfdhdhhhfhlzhllhhfffdfhhhdsdsdhdsddffddd$&guddddj",
"5tt9t5ttt999tttet599e9999959teeee9ee9yyeetettt9tttttedl@@ldeyee9",
">42555,22,,,,,2,2,22,,,,>>::::,,,,,,,,,,,,,,,,,2,,,:>9d@Ode544,,",
"2554222,22222,,,,,55522525552,2,,,,,,,4,,,,,,::-----:9d$@j9,,,44",
",>::-:-:-:>,,222,5,,,,,,,,,2,2,55544,,,,5255522,,2955tl&@d91>111",
",:>>,,,,,,:,,,,,>,,,,,,,,,,,,,,,,,4,,,,,2,:,22555ttytih@@l949991",
"2225555555222,,,,,,,,2522,,22,2,,,,,,44,,,:>,,:>:55o9yd@@deeeOy4",
",,,,22,,,2,,,2,,,2,,,,,5,2,2,,,,,,,,,,,,,,>>,,,,,59Oyyd$$l959@e9",
"2,2,,,,2,2222222222522,>:>,,,22,44444,,44,,,,2554eyteif$Olyeyee4",
",2,22,2,>:>>->:,,,2,,,,:-,,,2,,,,,,,,,,,,2,45,5,,111,9f$Oly14114",
",2,,,2,,,,,,,,,,,,,,,,,,255,,,,,,,->,,,,,,,,,,,,,,,,,yf$@f9>1,,1",
">>:>:,>>>,,4,22,,,,,,,,,,5,,>,,5,2,552,42,,2,,,,,,,4,yh@Odw5,,,,",
"49494994905499909ettttttett9e9994e9tt9949y9tet9tttt9edh$@dd99999",
"lllllhdhhllzhzzlhzlhzhfhhlhhflllllflfhzzffhhhlhlfzfffll=&>lfllll",
"@@@@@$$=*=$$$@oo.o$oo@@#$$$$$$$&$$@@@@X@$$$$@@@@oX$oOO$&$$$@O@@@",
"oo@oo$$$$$@@@@$@@@@@@@@@@@@@@X@@$@@XXXXXXXXXXXXX$o#ooo@@$o@oXXXX",
"lllzllhdddddhhllfdldflhhhhhhhfl$$lhfffllhhhhhhhhfhfhdllhlzhhhhhh",
"yy909949e9t99999eee55999teyyyihXXfs9ee99ytttt9tt9y599992199etppy",
">,,,,>425,,,>,2,55,,,>>>:>,>>9f@@h9,,2,,,,2,,,,,,,5555,,,,>>,,,,",
",,2,252222,,,,225,,55,55,,,,,yh=$ly,,,,,::::,252,,,,,,,,2,,,,,,,",
">,,,,,,,,,,,,,,,,,,555,,52eeeyh=$hy5,,4,,:::,,,2442,,,:>::,,,>::",
",>,,,,,,,,,45222,,,,,,-,,99ye9d@Xdw5ttt66552::::>-::>,2555,,,:,,",
"44,,,,,,,,,,,,,,,,,,,,,,>9@@9wd@Xdweot5,2,2222,,,,,,,,,2,2255552",
"4,,4,4242242,,,,,,55555599&O9wj&&dwtXt4,,2,25522225555225,,22,5,",
",2,,,,,,,,,,,222,,,,,,,,19yyyyd$Odyee94,,,,,>,,::,,,,,:::,::,,,,",
",,,,,,,,,,,,,,,2,5,155,,,1594yd$$fy111,1,,,,,,22222,,,,,,,,,,,,,",
"2,,2,42242222,:>->,:-,5,5551,ydOOhy,444122222222,22,2222552552,5",
",,,,,,,,>,,,,::,,,,,,>,---,>>9dO@hy,>>>-::::::>>,,,,,,,:,>::,,,,",
"t99t9t0049eyttyytyyytte9ee9e9ul&&hy9999e99999999t5t9ettteeetee9t",
"hhhhhhhlllhhhhhhddddddlllllllll@&llfllllllllllllllhhhhhhhhhlhhfh",
"$@@@@@@@@@@$$@X@OOOXXOXXOOOXOOOXXOXXXOXO$@@@@@@@@@@@@$$$$$$$$$$@"
};
