/* XPM */
static char *aeae921cd36e46f88cc36a1129d3ba96tknuezu8nKdEmcmI[] = {
/* columns rows colors chars-per-pixel */
"64 64 154 2 ",
"   c #1F0E11",
".  c #220B0F",
"X  c #240E12",
"o  c #280F14",
"O  c #221114",
"+  c #291115",
"@  c #2C1519",
"#  c #37161C",
"$  c #39181E",
"%  c #3E1E24",
"&  c #401F25",
"*  c #422027",
"=  c #45232A",
"-  c #47232A",
";  c #452228",
":  c #45242A",
">  c #46242A",
",  c #47242B",
"<  c #47252B",
"1  c #452229",
"2  c #48232A",
"3  c #49232A",
"4  c #48242A",
"5  c #48242B",
"6  c #49242B",
"7  c #48252B",
"8  c #49252C",
"9  c #4A242C",
"0  c #4A252C",
"q  c #48262C",
"w  c #49262D",
"e  c #49272D",
"r  c #4A262C",
"t  c #4A262D",
"y  c #4B262D",
"u  c #4B272D",
"i  c #4A272E",
"p  c #4B272E",
"a  c #4D252D",
"s  c #4C272E",
"d  c #4D272E",
"f  c #4A252C",
"g  c #4A282E",
"h  c #4B282E",
"j  c #4B282F",
"k  c #4C282F",
"l  c #4D282F",
"z  c #4C292F",
"x  c #4E282F",
"c  c #4C282F",
"v  c #50272F",
"b  c #4C2930",
"n  c #4D2930",
"m  c #4F2830",
"M  c #4E2930",
"N  c #4D2A30",
"B  c #4E2A30",
"V  c #4E2A31",
"C  c #4F2A31",
"Z  c #4E2B31",
"A  c #4F2B31",
"S  c #4F2B32",
"D  c #4E2A31",
"F  c #512830",
"G  c #502930",
"H  c #522830",
"J  c #512A31",
"K  c #502A32",
"L  c #502B32",
"P  c #512B32",
"I  c #552B33",
"U  c #502C33",
"Y  c #512C33",
"T  c #512D33",
"R  c #512D34",
"E  c #532C34",
"W  c #522D34",
"Q  c #532D34",
"!  c #522E34",
"~  c #522E35",
"^  c #532E35",
"/  c #532F35",
"(  c #532F36",
")  c #542C34",
"_  c #542D34",
"`  c #552D35",
"'  c #542E35",
"]  c #552E35",
"[  c #542F35",
"{  c #542F36",
"}  c #552F36",
"|  c #562F36",
" . c #572F36",
".. c #532D34",
"X. c #592E36",
"o. c #543036",
"O. c #553036",
"+. c #543037",
"@. c #553037",
"#. c #553137",
"$. c #563037",
"%. c #573037",
"&. c #553037",
"*. c #553138",
"=. c #563138",
"-. c #573138",
";. c #573139",
":. c #573239",
">. c #573138",
",. c #583138",
"<. c #593138",
"1. c #5A3038",
"2. c #5A3139",
"3. c #5B3139",
"4. c #583239",
"5. c #593239",
"6. c #58323A",
"7. c #59323A",
"8. c #58333A",
"9. c #59333A",
"0. c #5A323A",
"q. c #5A333A",
"w. c #5B333B",
"e. c #5D333B",
"r. c #5E333B",
"t. c #59343B",
"y. c #5A343B",
"u. c #5B343B",
"i. c #5A343C",
"p. c #5B343C",
"a. c #5B363D",
"s. c #5C343C",
"d. c #5C353C",
"f. c #5C353D",
"g. c #5C363D",
"h. c #5E363E",
"j. c #5E373E",
"k. c #5F373E",
"l. c #5E373F",
"z. c #5A333B",
"x. c #5F383F",
"c. c #62353E",
"v. c #5F3940",
"b. c #663740",
"n. c #633840",
"m. c #603A41",
"M. c #613B42",
"N. c #633C43",
"B. c #643C44",
"V. c #653E45",
"C. c #633B42",
"Z. c #6A4249",
"A. c #6A424A",
"S. c #6A424A",
/* pixels */
"O O   O O O O O O O O O O O O O O O O O O O O O O O O O O O O O O O O O O O O O O O O O O O O O O O   O O O O O O O O O O O O O ",
"+ X X X o + + X X X X X X X O O O X + O + O X O O X + + X O O + O + + + + + + + + + + + O + O O O O + O + X + X O O X + + X . X ",
"& * :.:.T e % % +.+.:.:.: v.+ O O + m.l % % +.+.~ ~ $ % l +.+.:.$ % g S q e g g % % +.#.x.+.+ O O o Z.8.6.#.#.#.+.#.* $ g ~ #.i.",
"~ S * * * S [ S * * & ; s.+.O O O + 6.X.~ S * % % % b g , * * * T T ; * q ; ; e T T 6 , y.* + O O X 8.T 3 3 ; ; * , #.~ , * * * ",
"% % % % % % % % % % % % S * + O O O #.; % % % % % % % % % % % % % % % % % % % % % % % % 6 S + O O . <.6 % % % % % % % % % % % % ",
"% % % % % % % % % % % % , S O O O X [ * % % % % % % % % % % % % % % % % % % % % % % % % * #.O O O + 6.; % % % % % % % % % % % % ",
"% % % % % % % % % % % % * +.X O O O #.* % % % % % % % % % % % % % % % % % % % % % % % % * y.O O O   #., % % % % % % % % % % % % ",
"% % % % % % % % % % % % % ~ + O O + ~ * % % % % % % % % % % % % % % % % % % % % % % % % * y.O O O O #.1 % % % % % % % % % % % % ",
"% % % % % % % % % % % % % +.+ O O O #.* % % % % % % % % % % % % % % % % % % % % % % % % S 6 + O O X :.; % % % % % % % % % % % % ",
"% % % % % % % % % % % % % :.  O O . +.% % % % % % % % % % % % % % % % % % % % % % % % % ) % + O O X T ; % % % % % % % % % % % % ",
"% % % % % % % % % % % % * S O O O . [ ; % % % % % % % % % % % % % % % % % % % % % % * % l #.+ O O X F l % % % % % % % % % % % % ",
"% % % % % % % % % % % % * :.O O O + :.; % % % % % % % % % % % % % % % % % % % % % % * * ; <.O O O X 6.3 & % % % % % % % % % % % ",
"; * * ; S e * * * , e * 3 6.+ O O + :.a G G 6 e 6.) ; ; * ; ; S 0.6.q * ; ; e F * ; [ 6.I s.+ O O O i.F ; 6 6 e e * % * S [ [ 6 ",
"i.6.6.i.* q 6.:.8.b ; b s.m.X O O + v.y.e #.s.i.% ; c.6.i.:.~ :.; & :.8.i.i.:.* s.v.b % x.s.O O O X B.s.y.:.y.S ~ 8.i.+.% g e T ",
"O + + X O + O + O X + + O + O O O O X X + X O X + + X + O   X   + + X X + O X O X   X O . + O O O O + + O + + X + X + X + X X X ",
"O O O O O O O O O O O O O O O O O O O O O O O O O O O O O O O O O O O O O O O O O O O O O O O O O O O O O O O O O O O O O O   X ",
"O O O O O O O O O O O O O O O O O O O O O O O O O O O O O O O   O O O O O O O O O O O O O O O O O O O O O O O O O O O O O O O O ",
"O O + X O X + O o X X X X X + + .   + + + + + X X + X X + + O O O O O X X X X X O X X O X O + X O + + X + X + O X X X X + +   O ",
"O O Z.s.6.:.:.:.:.#.% * i.:.y.:.6.~ $ % 8.b g S ~ e ~ ; % S @ O O O B.i.~ q :.~ +.~ ~ ~ S +.[ #.S # g +.:.e , * % e 6.S % v.@   ",
"O   y.F 3 , ; * ; e T #., ; ; ; ; l 6.<.; * % * ; F e [ s.B.+ O O O :.F e e * * % % * * * * ; ; g +.* % % , , b S e & e s.Z O O ",
"O + ~ F % % % % % % * % % % % % % % % % % % % % % % % % ~ : O   O O :.; % % % % % % % % % % % % % % % % % % % % % % % % * :.X O ",
"O X T F % % % % % % % % % % % % % % % % % % % % % % % % T : + O O X :.; % % % % % % % % % % % % % % % % % % % % % % % % * :.O O ",
"O   T 6 % % % % % % % % % % % % % % % % % % % % % % % % T % + O O X :.* % % % % % % % % % % % % % % % % % % % % % % % % * +.+ O ",
"O X e e % % % % % % % % % % % % % % % % % % % % % % % % l % + O O X 6.; % % % % % % % % % % % % % % % % % % % % % % % % S % X O ",
"O X * T % % % % % % % % % % % % % % % % % % % % % % % % , e + O O + [ a % % % % % % % % % % % % % % % % % % % % % % % % b q X O ",
"O O s.6 % % % % % % % % % % % % % % % % % % % % % % % % % :.X O O X l F * % % % % % % % % % % % % % % % % % % % % % % % * 8.+ O ",
"O X S [ & % % % % % % % % % % % % % % % % % % % % % % % % #.  O O X [ e * * * % % % % % % % % % % % % % % % % % % % % % = +.O O ",
"O X & [ % % % % % % % % % % % % % % % % % % % % % % % % * g + O O X :.) & * * * & % % % % % % % % % % % % % % % % % % % E q X O ",
"O X 6.F 3 ; ; ; , 6 +.~ * * * * * * * S q ; S S * * ; ; I 6.O O O O , c.6.6.c.) 6 ; F [ [ F ; * ; ; T T ; ; 3 6 ; 6 ; 3 m.s.X O ",
"O X A.i.6.s.#.+.~ T % % ~ y.:.+.:.:.+.* S :., e ~ ~ ~ :.~ x.O O O + v.B.a T ; 3 c.6.g g S ~ i.:.6.y.& ; 6.6.6.:.s.i.i.v.& S @ O ",
"O O O O + X X X + X + + + X . O O O X X + + O O X X +   + + O O O O O X + O + O O X X O O + X + + X + X   X O X + + O + + + O O ",
"O O O O O O O O O O O O O O O O O O O O O O O O O O O O O O O O O O O O O O O O O O O O O   O O O O O O O O O O O O O O O O O O ",
"O O O O O O O O O O O O O O O O O O O O O O O O O O O O O   O O O O O O O O O O O O O O O O O O O O O O O O O O O O O O O O O O ",
"X X O O + + O O O + + X   + X O O X X X O +   O O O X + O + + X O O X . . + O O O O + + O O + O X X O O X + O O O   X X + X O + ",
"+.g g e y.S + O O + 6.s.#.s.~ :.:.y.g s.i.Z.+ O O X m.6.~ #.#.:., T <.+.8.8.+ O O + N.6 6.T 6 [ y.6.:.:.y.m.  O O O N.e l :.[ #.",
", a F T l i.O O O O s.I a e F a ; , a ; v y.O O O . 6.6 * * * , l g , 6 T +.+ O O + V.c.) G [ F 6 6 6 6 l :.O O O O i.6.l ; ; ; ",
"% % % % ; 6.+ O O   y.e * & % % % % % % ; :.X O O + b , % % % % % % % * 6 u.+ O O + g 3.* & * % % % % % , #.X O O o #.3 % % % % ",
"% % % % * #.O O O X F G * % % % % % % % 3 ~ + O O O q l % % % % % % % % 6 y.O O O + $ 6.& * & % % * % % ; 6.  O O X :.3 % % % % ",
"% % % % * :.O O O + y.6 % % % % % % % % T % X O O X +.* % % % % % % % % 6 y.+ O O . y.3 & & % % % % % % 6 l + O O X :.; % % & % ",
"% % % % , l . O O X y., % % % % % % % % S * + O O X +.% % % % % % % % % 3 #.X O O + u.6 & % % % % % % % e S + O O o #.; % % % % ",
"% % % % * +.. O O O :.6 % % % % % % % % , #.X O O O ~ * % % % % % % % % 6 6.. O O X ~ T & % % % % % % % l : O O O + 6.; % % % % ",
"% % % % , #.. O O X l T % % % % % % % % * #.X O O + S 6 % % % % % % % % e u.X O O + % u.% % % % % % % % g * + O O X 6.; % & % % ",
"% % % % ~ % + O O X e [ * % % % % % % % * ~ . O O X l e % % % % % % * * #.F + O + + $ c.* * & % % % % % * #.X O O X +.6 * % % % ",
"% % * * [ N O O O + e 6.% % % % % % % % ; +.O O O X l 6 % % % % % % * * <.* O O O + & 6.* & % % % % % % * +.X O O X :.6 % * % % ",
"; ; G T I c.+ O O   ; c.6 ; , * * , * ; X.e X O O O y.6.[ F * % * ; 6 6 X.N.X O O X x.b.l ; ; & * * * * , :.O O O + u.) 6 6 0 3 ",
"u.s.e ~ s.S.+ O O X B.S y.+.S +.y.F :.~ #.N.O O O + 8.S e S 6.~ y.u.y.y.c.#.X O O @ :.% u.6.#.<.#.#.#.#.~ Z.+ O O + S.u.s.s.u.6.",
"+ X + . O O O O O   @ + X + + X + O X O O O O O O O +   + O X X o + X + + @ O O O   O O + O O O X O X + O + O   O   O O X O + + ",
"O O O O O O O O O O O O O O O O O O O O O O O O O O O O O O O O O O O O O O O O O O O O O O O O O O O O   O O O O O O O O O O O ",
"O O O O O O O O O O + O O O O O O O O O O O O O O O O O O O O O O O O O O O   O O O O O O O O O O O O O O O O O O O O O O O O O ",
"+ + + + + + + + O O X + @ + O O O O O X O O . X + O X X + O O X   X X X X + + + + + + + X O O O O O @ + X + O X + + + @ + + + + ",
"% % % * g , % g :.:.:.e q Z + O O + Z.y.~ l 6.6.e * [ #.b S S ; S ( +.:.S q ; :.S % $ * 8.v.X O O X :.s.; :.[ ~ :.e % ; b +.% # ",
"T ~ T g * 6 S l * * ; ; i.% + O O O 6.a e 6 ; ; e l ; & , ; q e % % % % * : q * e ~ 6.F e 8.O O O + e 6.F 3 ; ; ; e S = % % b +.",
"% % % % % % % % % % % % * ~ X O O O :.; & % % % % % % % % % % % % % % % % % % % % % % % e g + O O + ~ e % % % % % % % % % % % % ",
"% % % % % % % % % % % % * 8.O O O   :.; % % % % % % % % % % % % % % % % % % % % % % % % g * X O O X S q % % % % % % % % % % % % ",
"% % % % % % % % % % % % * :.O O O X 6.; % % % % & % % % % % % % % % % % % % % % % % % % * :.O O O + e ; % % % % % % % % % % % % ",
"% % % % % % % % % % % % * S + O O + x.3 % % % % % % % % % % % % % % % % % % % % % % % % % ~ X O O X S * % % % % % % % % % % % % ",
"% % % % % % % % % % % % * ~   O O X % :.% % % % % % % % % % % % % % % % % % % % % % % % % #.O O O X e l % % % % % % % % % % % % ",
"% % % % % % % % % % % % * 8.O O O X # y.* % % % % % % % % % % % % % * % % % % % % % % % & #.  O O X :.; % % % % % % * % % % % % ",
"% % % % % % % % % % % % ; :.O O O X :.a % % % % % % % % % % % % % % % % % % % % % % % % ; F + O O X 6.; % % % % % % % % % % % % ",
"% % % % % % % % % % % * e :.+ O O + S 3 % % % % % % % % % % % % % % % % % % % % % % % % ; :.+ O O + 0.3 & % & % % % % % % % % % ",
"~ <.l e l 6 ; ; ; e S F n.[ X + O O b 6.3 e F 6.:.e * & b S ; * * = :.S * & * * * * ; ; a 8.O   O X S 3.F ~ 3 ; #.:.; * g , * ; ",
"% $ [ 6.+.S i.y.6.s.g S e A.+ O O + x.~ s.s.S * & :.s.s.S ; i.i.s.+.% = v.:.0.:.:.:.:.y.i.A.+ O O O m.m.~ b s.m.* # S 0.+.:.s.:.",
"+ X + X O X X X + X O X O + O O O O X X + O O O + O + X O + X   + X X + X   + X O X O O + + O O O   + +   X + X + + + X O O + X ",
"O O O O O O O O O O O O O O O O O O O O O O O O O O O O O     O O O O O O O O O O O O O O O   O O O O O O O O O O O O O O O O O "
};
