/* XPM */
static char *_5db1881f4a14cedace09e99e8abac55z8hkZ4geHQVS1Cqv[] = {
/* columns rows colors chars-per-pixel */
"64 64 146 2 ",
"   c #1F0E11",
".  c #240B0F",
"X  c #240E12",
"o  c #2A0E13",
"O  c #221114",
"+  c #2A1116",
"@  c #2C1519",
"#  c #2E191C",
"$  c #301217",
"%  c #33151B",
"&  c #38171D",
"*  c #35191E",
"=  c #39191F",
"-  c #371B20",
";  c #3E1E24",
":  c #3E2026",
">  c #401F25",
",  c #422027",
"<  c #452329",
"1  c #4E272E",
"2  c #4C262D",
"3  c #4A252C",
"4  c #462A2F",
"5  c #48282D",
"6  c #49282E",
"7  c #4A282E",
"8  c #4B282E",
"9  c #4B282F",
"0  c #4A292F",
"q  c #4B292F",
"w  c #4C282F",
"e  c #4D292F",
"r  c #4E282F",
"t  c #4B282F",
"y  c #50272F",
"u  c #50272F",
"i  c #4D2930",
"p  c #4E2930",
"a  c #4F2930",
"s  c #4C2A30",
"d  c #4C2A31",
"f  c #4C2B31",
"g  c #4D2B31",
"h  c #4E2A30",
"j  c #4E2A31",
"k  c #4F2B31",
"l  c #4E2B32",
"z  c #4F2B32",
"x  c #4D2C32",
"c  c #4F2C32",
"v  c #4E2A31",
"b  c #502A31",
"n  c #512A32",
"m  c #502B32",
"M  c #522A32",
"N  c #532A32",
"B  c #552931",
"V  c #542B32",
"C  c #502C33",
"Z  c #502D33",
"A  c #512D33",
"S  c #522C33",
"D  c #522D33",
"F  c #542C33",
"G  c #512D34",
"H  c #532D34",
"J  c #522E34",
"K  c #532E34",
"L  c #532E35",
"P  c #522F35",
"I  c #532F35",
"U  c #542D34",
"Y  c #552D34",
"T  c #542E35",
"R  c #542F36",
"E  c #572E36",
"W  c #562F36",
"Q  c #532D34",
"!  c #592F36",
"~  c #592E36",
"^  c #543037",
"/  c #553037",
"(  c #563037",
")  c #573037",
"_  c #553037",
"`  c #583037",
"'  c #583037",
"]  c #553138",
"[  c #563138",
"{  c #573138",
"}  c #573139",
"|  c #573239",
" . c #573339",
".. c #57343B",
"X. c #563138",
"o. c #583138",
"O. c #593139",
"+. c #583239",
"@. c #5A3239",
"#. c #5B3239",
"$. c #59323A",
"%. c #58333A",
"&. c #59333A",
"*. c #5B323A",
"=. c #5A333A",
"-. c #5A333B",
";. c #5B333B",
":. c #5C323A",
">. c #5C333A",
",. c #5E333B",
"<. c #59343B",
"1. c #5A343B",
"2. c #5F333C",
"3. c #5A353C",
"4. c #5A363D",
"5. c #5B363D",
"6. c #5C343C",
"7. c #5E353D",
"8. c #5F353D",
"9. c #5D363D",
"0. c #5E363D",
"q. c #5D363E",
"w. c #5F363E",
"e. c #5F373F",
"r. c #5B343B",
"t. c #5D383F",
"y. c #5E383F",
"u. c #60333C",
"i. c #60353D",
"p. c #62353E",
"a. c #61363E",
"s. c #61373F",
"d. c #62373F",
"f. c #61353D",
"g. c #60383F",
"h. c #5F3B42",
"j. c #613941",
"k. c #603A41",
"l. c #603B42",
"z. c #643840",
"x. c #633B42",
"c. c #693C45",
"v. c #674047",
"b. c #6B454D",
"n. c #6A4149",
"m. c #73444D",
/* pixels */
"O O   O O O O O O O O O O O O O O O O O O O O O O O O O   O O O O O X O O O O O O O O O O O O O O O O O O O O O O O O O O O O O ",
"+ X X X + + X + X X X X X X O O X   + X O O X X O X + X   + X + X O o @ + X + + + X + + O + O O O O + X o X + O O O X X + X X X ",
"> < <.] J 3 ; , ^ J ] ] < l.+ O   @ h.Q ; ; l.3 $.] ; - S $.3.6.; ; U $.= m x d ; > ^ $.h.J + O O + b...6.3 <.$.( ] ; - e J ] 3.",
"U S , , , l U S , , < < ,.] O O X X h.p.j.6.l > < > Q ] m < < 3 ^ :.l ~ ; Q m m $.:.3 3 $.; + O O X - + o p.5 < , 3 J J < > , < ",
"; , , ; ; : ; ; ; ; ; ; l < X O O O <.3 < > l - , ; ; ; ; ; ; ; ; > > < 5 3 < > > > ; ; 5 l + O O X 3.6.m 5 ; ; ; ; ; ; ; ; ; ; ",
"; < - , ; ; ; ; ; ; ; ; < m + O O X <.3 > ; ; ; 3 ; ; ; ; ; > ; ; > > > 3 a a > ; > > ; > ] X O O X $.3 > ; ; ; ; ; ; ; ; ; ; ; ",
"; 3 $ 5 > ; ; ; > ; ; ; : ] X O O X <.< ; ; ; 5 - ; ; ; ; ; ; ; ; ; > < > $ j.> > > ; ; > ^ O O O X ] < ; ; ; ; ; ; , ; ; ; ; ; ",
"; , l * 5 ; ; ; ; ; ; ; : c + O X X ^ , ; ; ; < * d ; ; ; ; ; ; ; ; ; > $.$ Q 2 > ; ; > 3 <.X O O O 5 , , ; ; ; ; ; ; ; ; ; ; ; ",
"; ; ; < , ; ; ; ; ; ; ; ; ^ X O   X ] < ; ; ; ; 9 o 5 ; ; ; > ; ; ; ; ; > ( o ~ 2 > 2 l ; , + O O X ] 3 > ; > ; ; ; ; ; ; ; ; ; ",
"; ; < , < ; ; ; ; ; ; , > ] X O X X ] , ; ; ; ; , l $ 5 ; l , < m l > > > , 5 = u.F 3 o ] 9 O O O X x 5 d < ; ; ; ; ; ; ; ; ; ; ",
"; c <.o x ; ; ; ; ; ; ; < J + O O X J < ; ; ; ; ; ; <.% ; X o o @ $ > ^ S U 5 5 $.; @ e ,.<.O O O + ( z.- m < ; ; ; ; ; ; ; ; ; ",
"< : o % R ; > ; ; ; > ; , ]   O O X ^ < ; ; ; ; , d @ > 5 9 < 3 l < o $ & ; e % % $ $.B < ] + O O X 6.u 3 % $.> ; , ; ; ; ; , > ",
"< 3 j.% - ,., > > 3 2 < 3 ] X X O + } 3 3 3 , l - - U 3 < 3 > u ~ p.6.x % 5 ^ 9.@ ` ,.Q m 6.+ O O X 6.m < 9 - ,.l l 3 , J } ~ 2 ",
"h.} 6.<.- 5 h.} 6.9 < l h.$.X O O O h.] < m 3.- 5 ] l.6.<.h.U h.3 , h.: h.<.S 3 t.5 5 - $.$.+ O O   c.6.] ] J J J , 3.] ; 3 3 J ",
"X + X @ O X O + X X O @ + O   O O O X X + o X O @ + o X     X X + +   + O O O O X X X X X X O O O O + + O + o X X + @ X O X X X ",
"O O O X O O O O O O O O O O O O O O O O O O O O O O O O O O O O O O O O O O X O O O O O   O O O   O O O O O O O O O O O O O   X ",
"O   O O O O O O X O O X O O O O O O O O O O O O X O O O O O O O O O O O O O O O O O O O O O O O O O O O   O O O O O O O O O O O ",
"O O + X X O O + X X X   O X X X X X @ @ + O O X X + X X + O O O O O O X X o X . O X O X O + O O O O + O + X + O X   X X + +   O ",
"  O b.6.6.6.v.- <.<.- 5 h.$.,.,.c l % % ] - , h.} u } 3 - ^ @ O O O n.p.] 5 :.$.c ] h., : ; c c.<.= x $.<.e 5 % - e 6.l - 3.+ O ",
"O O 3.m 2 p.@ J 3 l : c.a 3 2 u > R j.,.< Q - - } ~ u p.c.n.X O O O :.~ m m < < 5 , U - <.5 $ $ m z.< , , S 3 $.$.m < 2 z.d O O ",
"O O U B m < % } > ; d ; a > > 3 - 9 > ; > ; l $ 2 > > > } 9 O O O X 3.3 > ; > ; ; 3 ; < ; , J - $ U ; ; ; J o ~ > > ; ; 3 <.+ O ",
"O X l } 3 o $.> ; ; , % 3 ; ; , ; < ; ; ; ; ; a @ Q > < } a O O O X ] 3 > ; ; ; 3 - - : ; ; ; x o : e ; , 3 5 e < ; ; ; , ] X O ",
"O X S ,.& @ U > ; ; ; , ; ; ; ; ; ; ; ; ; ; ; < , % l > } ; O O O X $.3 ; ; ; > < @ d ; ; ; ; , 3 - = 5 <.o S , > > ; ; , ] O O ",
"O X 3 j.$ % m > : ; ; > ; ; ; ; ; ; ; ; ; ; ; ; a - ; N z.& @ O O X ] < ; ; ; < @ d ; ; ; ; ; ; , , 5 - : @ c.S m $.J 3 l.; X O ",
"O + 5 : - m 2 > ; ; ; ; ; ; : ; ; ; ; ; ; ; ; ; < <.% @ - 6 O X O + U 2 ; ; ; ; < , ; ; ; ; > ; ; ; ; , e & - X X . % ; - - X O ",
"O X : J l.o m ; ; ; > ; ; ; ; ; ; ; > ; ; ; ; x ; - Q < 6 : O O O X l m > ; , - , ; ; ; ; ; ; ; ; ; ; ; l @ S x m U 3 > 2 h.+ O ",
"O X l m $.= 5 ; ; ; ; ; ; ; ; ; ; ; ; ; ; ; > - < < ; ; 9 c   O O X ` 3 ; ; ; : ; > ; ; ; ; ; ; ; ; : e - 5 3 < > < ; > < <.X O ",
"O X ; Q U , , ; ; ; ; ; ; , ; ; ; ; ; ; ; ; ; ; ; ; ; ; , x X O O O U e ; : , = l ; ; ; ; : > ; ; : S o S m - U $.< > > N 5 X O ",
"O X J a N > d , < < J J > > ; ; > > , 9 < < x a , > < , Q 6.X O O + < $.( 6.U 3 ~ < m U 9.6.$.$.S d * 3 B 5 U $ & j.u 2 c.l.X X ",
"  X v.3.x.; } R m m ; - x ^ R J ^ ^ R : x R < 6 Q R ] } J l.O   O O Z Z & % = - l.3.2 < ; - ; * 5 f - J 3.6.6.l.; c.6.c., l + O ",
"O O O + +   X X o X O @ o X X X X O X X X @ X X X X X X X @ O O O O O + # # O O   X + + O + O + + X + X .   O O + + X O @ O O O ",
"O O O O   O O O O O O O O O O O X O O O O O O O O O O O O X O O O O O O O O O O O O O O O   O O O O O O O O O O O O O O O O O O ",
"O O O O O O O O O O O O O O O O O O O X   O   O O O O X O   X X O O O O O O O O O O O O O O O O O O O O O O O O O O O O O O O O ",
"X X X O X O O O O + + X X O X X   X X X O @ O O O O X X O + X X O O X X . + O O O   O + O + + X   O O + o O O O O O X X O X X X ",
"<.m e l l.( + O O + ] <.J $.2 U ] } 3 } <.x.+ O O X x.<.} <.j.- ] J $.F ] ^ + O O X j.< U J 3 U 3.n.d <.<.t.  O O O v.e U 6.6.6.",
"2 ~ u.:.B d.O O O X p.B 2 < 5 < , < u 1 E h.X O O X ^ a < a z.o t.e < < l f + O O + 6.p.m m } N B U 5 3 2 U O O O X h.p.U 2 3 3 ",
", 2 ; U B $.O O O   <.N , , , , ; < $.> - > + O O O x a > > } % 5 > > ; , ] X O O X 9 U > < > < < e d ; < U X O O o :.3 , , > , ",
"> 5 e o m l.X + O O - 6.u.$.:.( 3.Q o 5 n x.O O O X < a > > 3 < , ; > ; , ( + O   @ - U > > > > > U d 3 3 $.X O O o :.3 , , , > ",
"; > F 5 o 5 + O O @ , % @ @ $ o @ , ,.a ,.- X O X X R > ; > > Q - m > ; , U + O O X } < > ; ; ; > < 3 J 3 3 O O O X $.5 > ; > ; ",
"; ; > < <.^   O O O : % 3 3 2 5 } o j.> j < O O O X R > ; ; ; <.o U e ; < J O O O @ N < ; > 3 , , , , , l.l + O O X $.< > ; ; > ",
"; ; ; ; , U X O O   f m 2 < < < u > < m 3 U X O O X P , ; ; > ,.& $ ~ > , ^ X O O X ; x.J 3 % & 5 > , , $.2 O O O X $., > ; ; ; ",
"< < ; ; 5 U X O O X d l > > > , < U o p.5 U X O O + x < ; ; > } > $ :.> 3 $.X O O + - * $ < J m > > > > ~ 5 O O O O :.< > > ; ; ",
"> 3 U < h.- X O O X 3 m > , > > > u 5 ; 6. .X O O X 3 3 ; ; ; < $.o 6., l 3 O O O @ @ 4 z.2 > > > = > > 5 :.. O O X U 2 , : , 5 ",
"o $ - , o d @ O O X < U , > > > < < N > + < + O O X 9 5 ; ; > > F - m , m : + O O + ; 3 o <.U < > > > > < $.. O O X <.< , 5 3 & ",
"} 9 5 x :.h.X X O   , p.< < 5 2 2 :.- c.p., X O O O <.N m m 3 a e - U 3 U c.O O O X x.m.l.@ @ l 2 , 5 < S <.X O O X $.e < < u ~ ",
"} <.3 c $.c.@ O O X l.J p.~ m 9.j.3.3 x.6.n.O O O O ] l 3 a ^ J 3.; ..x 5 :   O O + ..; 6.c.c - $.` ` #.<.( # O O O n.$.( $.( ( ",
"o X + X O O X O O   @ + X o o O O X X O O O O O O O X X X X X X X + X + # @ + O O   O O X + O + X X X + O + O O O O + O X O + O ",
"O O O O O O   O O O O O O O O O O O O O O O O O O O O O O O O O O O O O O O O O O O O O O O O O O O O O O O O O O O O O O O O O ",
"O   O O X X O O O O O X O   O O O O O O O O O O O O O O O O O O O O O O O O O O O O O X O O O O O O O O O O O O O O O O O O O O ",
"@ + @ O + + O O + X X o @ @ O O O O O X X O . o O O + . X X O X X X O . X X + + X X @ X X X O O O O + X + + O X + + + + O O + + ",
"; > > > <.x @ l <.<.<.3 6 P O O O + n.:.( e <.:.e , e ( 9 J J 5 ^ h.; ] ; < m 6.^ ; - < 3.h.X O O o  .l.& l.c.l.c d ; 3 e ] : = ",
"N ^ U h.> o *.J < < 3 } , ; @ O O X 9.u b b 5 < m e 5 , 3 < 3 3 3 3 @ $.] * m :.m ,.,.U a <.O O O O 5 ~ 6.% + % - x J 3 , , x ( ",
"; ; > , % x > ; ; ; > > ^ ; X O O O $.2 , , : , ; > ; > ; ; ; , ; % e , > J X $.> > > ; 5 5 X O O O ] $.% % d.e , ; ; , ; ; ; > ",
"> ; 3 @ x ; ; > ; ; ; ; < <.@ O O X $.5 , , , 3 , ; ; ; ; ; : , o 5 , ; ; 3 % < ; ; ; ; 3 , X O O X ; < 6.+ l ; , ; ; ; : ; % ; ",
"% Q , , > ; > ; ; ; ; ; > <.X O O X :.3 > , F % < ; ; ; ; ; ; , , , > ; ; ; l - > ; ; ; : ] O O O + l 2 d @ e ; ; ; ; ; ; ; 3 ; ",
"Q % @ 3 > ; ; ; ; ; ; ; 2 ^ O O O O d.2 , 5 t.- ; : ; ; ; ; ; ; ; ; ; ; ; ; l % 3 ; ; ; ; c + O O + 5 , : - 2 ; ; ; ; ; ; ; ; 3 ",
"> U - , ; ; ; ; ; ; ; ; < ^ X   O X , 6.e e o m ; ; ; ; ; ; ; ; ; ; ; ; ; ; l o l l l : , ^   O O o 3 3 ; 3 % > ; ; ; ; ; ; ; ; ",
"; ; j.- 5 ; ; ; ; ; ; > 3 <.X O O X & p.:.. <., ; ; ; > ; ; > ; ; ; ; ; ; ; 5 % o X % < 5 < O O O X ] , ; , , ; ; ; ; > ; ; , ; ",
"; 3 % - < ; ; ; ; > > > > *.O O O X ] u.:.& F ; ; ; ; ; ; ; ; ; ; ; ; ; ; 5 @ U 2 m 3 > 5 5 + O O X ] < ; ; ; ; ; ; ; ; ; ; ; ; ",
"; d = 3 ; ; ; ; ; ; > > a h.O   O X $.h.o , b > ; ; ; ; ; ; ; ; ; ; > , l % ] 2 > ; ; > , ^ + O O X ] 3 ; ; ; ; ; ; ; : ; ; ; ; ",
"U ,.$.2 l < < < > 3 a ^ c.h.X X   O @ = > z.U $.] 2 > < 2 l < , , 3 ]  .$ > :.2 5 < < < l $.O   O O l $.m m < 5 S $.< , 3 3 , < ",
"; ; U $.] c <.,.h.Q a Q 3 9 O   O + h...; h.l , - 6.<.,.m < 6.$.3.J , < , n.p.6.3.<.:.,.6.v.+ O O O 6.l.J 5 p.( & & l $.J ] t.~ ",
"O X + O O X X X X X o X O @ O O O O X X + X O X O + X X O O . X X X O + X   + + O X X O + + O O O   + + X X O X + + + X X O + X ",
"O O O O O O O O O X O O O O O O O O O O O O O O O O O O O O O O O O O O O   O O O O O O O O O O O O O O O O O O O O O O O O O O "
};
