/* XPM */
static char *d27de641d5ac40e08dfd754760ec8780WWuGeaVfrJMYkbTY[] = {
/* columns rows colors chars-per-pixel */
"64 64 146 2 ",
"   c #A1543F",
".  c #9E5744",
"X  c #9F5846",
"o  c #A25743",
"O  c #A35A46",
"+  c #A95B46",
"@  c #A55D4A",
"#  c #A95E4B",
"$  c #A7604D",
"%  c #AB614E",
"&  c #B1634F",
"*  c #AD6553",
"=  c #AF6956",
"-  c #AF6B58",
";  c #B26653",
":  c #B26956",
">  c #B86B56",
",  c #B36C59",
"<  c #B96E5A",
"1  c #B6715D",
"2  c #BA725E",
"3  c #8F7E7A",
"4  c #B77460",
"5  c #BB7561",
"6  c #BD7A64",
"7  c #BF7D68",
"8  c #C07963",
"9  c #C07A63",
"0  c #C07A64",
"q  c #C07A66",
"w  c #C47D65",
"e  c #C17A64",
"r  c #C57F68",
"t  c #C17E69",
"y  c #C18069",
"u  c #C1806B",
"i  c #C2806A",
"p  c #C4816B",
"a  c #C6836C",
"s  c #C4826C",
"d  c #C8866F",
"f  c #C68770",
"g  c #C78872",
"h  c #CA8D77",
"j  c #968782",
"k  c #998781",
"l  c #978883",
"z  c #9C8C87",
"x  c #9C8B86",
"c  c #9D8D89",
"v  c #9D8E88",
"b  c #9E8E88",
"n  c #9E8D89",
"m  c #9F908C",
"M  c #9E908B",
"N  c #A08C86",
"B  c #A08E8A",
"V  c #A3928C",
"C  c #A1938E",
"Z  c #A2938E",
"A  c #A3948F",
"S  c #A7958F",
"D  c #A3938E",
"F  c #A8958F",
"G  c #A49590",
"H  c #A59691",
"J  c #A69791",
"K  c #A79792",
"L  c #A69691",
"P  c #A89690",
"I  c #A99792",
"U  c #A79893",
"Y  c #A69994",
"T  c #A79994",
"R  c #A79995",
"E  c #A79A95",
"W  c #A79994",
"Q  c #A89892",
"!  c #A89893",
"~  c #A89993",
"^  c #A89994",
"/  c #A99A94",
"(  c #A89A95",
")  c #A99A95",
"_  c #AB9A95",
"`  c #A89B96",
"'  c #AA9A96",
"]  c #AA9B96",
"[  c #AB9B96",
"{  c #AA9B97",
"}  c #AD9B94",
"|  c #AC9B96",
" . c #AB9C97",
".. c #AD9C96",
"X. c #AC9C97",
"o. c #AD9C97",
"O. c #AD9D97",
"+. c #AE9D97",
"@. c #AF9D97",
"#. c #AB9A95",
"$. c #AD9D98",
"%. c #AC9E99",
"&. c #AD9E99",
"*. c #AE9E98",
"=. c #AF9E99",
"-. c #AE9F99",
";. c #AD9F9A",
":. c #AE9F9A",
">. c #AD9E99",
",. c #B09C97",
"<. c #B19E98",
"1. c #B09F9A",
"2. c #AEA09B",
"3. c #AFA09B",
"4. c #AFA29D",
"5. c #AEA19B",
"6. c #B1A09C",
"7. c #B1A19C",
"8. c #B0A29D",
"9. c #B1A29D",
"0. c #B1A29E",
"q. c #B0A39E",
"w. c #B4A29C",
"e. c #B3A49E",
"r. c #B3A49F",
"t. c #B5A49E",
"y. c #B2A29D",
"u. c #B5A5A1",
"i. c #B9A9A4",
"p. c #BEADA8",
"a. c #E09986",
"s. c #E69D8C",
"d. c #EDA694",
"f. c #EDA795",
"g. c #EFAA97",
"h. c #F1A591",
"j. c #F3AD9B",
"k. c #F8B19F",
"l. c #FAB5A3",
"z. c #FCB6A4",
"x. c #FFB9A7",
"c. c #FDB9A8",
"v. c #FFBCAA",
"b. c #FFC0AE",
"n. c #FFC1B0",
"m. c #FFC3B2",
/* pixels */
"_ P F V 2.C Y 2.Q } w.3.} } 2.M >.R 6.R 0.0.R ;.;.R L Z { R L ' ' 6.I 6.R t.,.| F I L | o.o.0.G 0.m 0.R ` 4.Y v %.v ..S / Y w./ ",
": : % : : $ = : o : & & : : d.7.6.l., @ - - * * - - , - * * : , , & $ , , ; & & & ; & , < % v.{ c c.$ - X - X - : @ ; @ : ; : @ ",
"1 2 2 2 1 1 6 1 : 9 2 9 6 s : 4.6., q 5 4 5 1 4 6 7 5 5 5 7 5 5 5 5 q q 6 7 1 < < q < q t r < 6.c - 6 6 6 5 4 4 t 6 , : , 6 y 2 ",
"= * : : = 2 : : : : : : : 2 : e.R , 5 , 1 - = = = - , , , , 1 : , < , < 4 < < 1 > & > ; < t < >.u.- 7 * - , - = q : : : % = 1 1 ",
"= * 1 = = = - - - , : - = 5 $ G 6., , * X = * * = , 2 , , 5 5 1 , * * ; , 4 = , , : * , & 8 : ' m @ 5 = = , - = : < ; * % 1 = * ",
"1 - = : 1 = = 1 , - - - 1 1 , %.' * 1 * , , , , @ ; 2 - , , , : - < * X = * = - , : : > & < * I R = 5 ; , , - 1 & : % = = = 1 * ",
": = = % = = = - < - , , : 1 < %.' @ q , = @ = - 1 , 1 * : : * : - * : : , = - 1 1 : , ; > < & x >.* 6 = * - - - = - = - * = = * ",
"* : = * = = = = , < , - < 5 O %.B , % , * = * , 1 1 = , * - & $ * * - ; , * = - , < , ; & 8 , B R % < = - - , - = 2 $ 1 $ = : = ",
"; ; ; ; 5 ; - , = * , , , , : c ' ; t , , 1 = - = , , , ; + > & ; ; & & * * , , * * , , ; , , I P : y % 1 = 1 = = = = = : * O $ ",
"% & & ; O , - $ , , * : % : * x B , 5 ; , , , , , * - * & > & & & : & ; ; , , , , , - , ; > % D P : 6 , : = = : * 1 : : = * $ * ",
"& ; % ; ; - - 1 - = : - < * & L ' > 5 < : : * , , , ; , < ; > > > & ; ; ; , , < , , , = ; 8 ; I ..: 2 : , : : 1 = , : = $ , & : ",
", * - ; , - = - = * < : , % ; ' ' > 5 ; : : , , , = , ; , < < ; ; = - ; : * @ * ; * * , ; > & ,.,.; 2 ; , : % : = $ % : * : = : ",
"* * - , 1 5 - - , , : , : , * ' ' > < q , < : : , , , , , < < & & = , @ : , * ; < , ; ; ; < ; B ,.; 9 > @ : : 1 : = = : - : ; : ",
"5 1 4 4 4 , , 1 X 1 5 5 2 2 > B ' # t q 1 < 5 q , , < < q q q q 5 < , 1 , , , , , , , < < 8 + ,.V # d 2 1 1 1 p 2 1 2 1 : : 2 y ",
"1 $ - - < - @ , * , % < , > s.' ' k., @ , , ; : , % - - # , , ; , : : , $ : , , , > , , , * v.' 7.x.2 : : : , * : - , % : : * : ",
"Y R R R >.L Z B ' ' ' ' ' _ ' ' 1.Z c ' 0.6.6.1.' ' c { I ' I Z 6.' c 6.u.x c o.B 6.B ' 3 ' { ' S V V 7.V } S } 2.t.} 2.2.2.q.M ",
"R Y %.R u.0.R $.6.' Z o.' o.6.Z ' ' u.Z L 6.Z 6.' 6.I ' ' D L Z ' 0.6.' I m 0.6.I ' ' i.6.' Z ' i.V V $.,.' >.' L L o.o.0.' { G ",
"R a.< , @ - % ; : ; > ; % ; , , # , , $ , ; % * , , + ; ; ; c.' m c., , % , , , : , = , : # , : : @ ; ; - $ - , : * * * 1 , k.0.",
"0., f , 4 4 , : : ; ; , 1 1 5 t q q 5 < < 5 q , q 5 < q q q , L c * q 5 5 < < q < 5 < 5 , q 1 q < 4 < 6 5 1 # < < > < 5 1 7 , Z ",
"{ = 1 < * : < % ; % * % : 2 , = , , * ; : , , , , , , , : 5 * x I * 5 5 , , , , < , * ; < , , , : @ * = 5 , < ; > ; ; : , 5 % ' ",
"o.- - < ; ; < = * * * : * , < , : - : ; * 1 , , , , , , : 1 , 6.' * 5 , , , % , - = , $ * , , * : = : : , : > ; ; ; ; & , = * { ",
"m ; 5 : : , : : = * , : : * - - , , : * , , , , , ; ; * : 1 @ o.c o q o ; , 5 , , = , % : , @ < : : * : * : : ; ; & , ; , = , >.",
"0., # q , ; * = : * X : * 1 - - , < : - * , : , # = ; : ; 1 , 6.u., < , & * , - < * ; , , - 1 - : * = ; = : : ; ; & & ; , 5 * L ",
"' # q : ; : = : : * * 5 : , ; , * , - * * 5 , , , ; ; , : < @ 6.6., < ; , : 5 , 1 ; ; : , - < - 1 : = = * : * # ; & = & * , - ' ",
"6., 5 < , , , % , - - = - ; ; - , - * : % - , : , * : > < < , I 6.; q ; ; < , , : , , , 8 & , < : : = : * # : ; & ; - ; < 4 - R ",
"' ; , : ; , & = < ; , ; * * , ; * X * * & = * , = , : , : 5 , 6.6.; 5 ; ; < : : ; , + > ; < * , , : = = ; : = = - ; ; , , 4 < ,.",
"6.@ < * & & > & % = - < : ; < ; % : * < > * * : * : : : , 2 , o.6., q ; ; ; , * % * & , , , , , , * , - * - , , , * - , - 5 @ L ",
"B ; ; = & > > & : = : < ; , @ ; * ; < ; ; = ; % * % , : - 5 , B ' , q ; & & % : : : : , ; , < @ 1 , * : - 1 - : < - 5 - = 4 , 6.",
",.> > > & > & ; # < , # * < ; , * , * * * ; * , , * , < < 6 , 6.' * 5 , ; < ; > - , , , 1 1 , 1 , 5 , 1 , 4 - 5 , , < , , 5 % ,.",
",.o 8 < > + 8 8 2 < < > , 5 5 1 < q 5 < 2 < 5 < 2 5 < 5 5 t , c B , 5 < < 5 5 < 5 1 5 7 q t t * 6 t h 7 5 5 4 7 < 8 q 8 5 8 > I ",
",.h.< & & ; + < , ; = ; * * , o , * , ; : * * ; * , ; = , , j.,.6.j., % , * * , , = < = 1 , @ < - < $ , = , * , , > ; : > > c._ ",
"6.,.,.F _ k _ w.' ,.' ' o.o.L i.p.u.6.u.L Z I ' L ' u.o.L ' ' _ B ' ' I 6.' 6.' 0.{ 6.' ' ' t.0.R >.6.R G j R ,.| ,.I I F I B _ ",
"1.L I R L I ,.<.w.1.w.I L N u.0.j ' R { R R Z ' >.,.| Z ' F ' ' ' 1.' 6.' ' ' ' I Z m m m m I I ' 6.I 6.R m Z L 6.R o.I B ' o.6.",
": : * : ; # & o ; & # < , , c.D 6.k., * * , , % ; ; ; @ ; * * * % ; : * ; % ; * * ; , * , % c.' 6.c., @ , , , , @ : : : , , < @ ",
"t 6 5 t 7 6 5 , < > 8 ; q t , | 6., t 6 1 2 5 6 5 6 < < 8 2 5 : < q q < q q < q q , , < 5 g , ' R , u q q g 1 < 1 2 5 < 5 7 5 q ",
", : - , - , $ * > > ; & < < + B 6., t < , , = , - : , , = > , , , , , < , , * , < < , : < , , 0.R , q , , , , ; , : : : - , , < ",
": 1 - - = , - = : : ; > ; > > 1.R : 1 : - * , : < , ; ; * - 1 - * * , , - , , , : , : , , 5 , I R @ 5 , , - ; % & > & & - < , - ",
", 5 , 1 - = 1 , : < ; & > > & _ 1.@ 1 = : : : 1 * ; * : * - : - , * , * , , , , < ; ; % , < , Z R - 5 , : : , & & ; & = 2 - , - ",
"- * , - - = - = < - , : ; > % | I ; 2 * , < > - , - ; - * - * * - , , , * , ; , > > ; , * , * Z 6.: < * ; * ; , & = , - % , = - ",
"- = - - = - = 4 < - ; : 5 , ; o.' * 2 : * 1 % , , 5 $ - $ * * - - , < ; , : ; ; ; ; ; , , 5 , 1.{ % q , * - * * = % ; * # = - & ",
": = : : @ = , 6 - * * - , , ; R I : 5 , * : , , 4 = O , , * : , , , , ; , < ; > < ; ; & , , , 6.S , 6 , : % : & & % - , = & > ; ",
": q < : * - = - = - - , = 5 % o.I : 5 , : < = = - < 5 = : - * : : * ; > < < ; < ; ; ; < , , ; 1./ = 6 : : 2 & & & ; - - , & & = ",
": : 2 , * = - < - = , , * , , | ' , 5 , , , = , , : ; , , * , , ; , ; < , ; ; ; ; & ; ; ; ; # ' e., 6 : : ; : : & , * , , , ; < ",
": : < , - , = , * * - - * - ; Z { , 7 , , , , , = , : , : * , , : : , ; , ; , , & ; ; ; ; 5 * 6.6.= 1 6 : : = : - 2 = ; - ; < % ",
"- 4 * 4 4 - , - - * - @ , 1 % m R - 5 , , , - , 2 $ , , * : & > , , : , , * * : & > , , , , * j 4.* 6 1 , = , : : : : : - , ; , ",
"6 1 4 4 4 - , 4 , 1 4 1 1 5 * 6.{ , t q 1 , 1 q 2 2 , 1 2 : 2 9 < < 5 < q < < o < , < < 5 q , u.4., s 4 4 , 2 1 4 1 5 < 2 , q 6 ",
": , - - @ , - , - @ , , , , f.R { v., , : , , , , % : * $ ; % ; , # : % * : : ; ; , o ; $ , j.j u.v.1 $ : * * : $ : @ : : # , : ",
"R %.R %.G %.%.R 6.R { { o.I 6.' R R Z 6.6.' ' ' P 3.3.w.N 3.} 3.6.' ' ' ' ' ' ' I ' ' 6.' ' 6.' 4.%.Y Y G Z Z V 6./ Z i.! R $.L ",
"R R { G %.%.Y %.%.-.e.Y / -._ ../ O.~ O.e./ 5.e.~ 2.2.~ / S 2.2.' ' 6.o.' ' L o.B ' L ' 6.I o.6./ %.Y / 2.2.J Y 2.2.S 3.2.2.J 2.",
"R f.= $ - O , $ : , * = , $ : ; ; ; = = * - - * > , : : : * d.J ' j., , - ; # ; O ; ; @ : , , 1 $ , @ : = ; $ ; = O : : & $ g.J ",
";.- 7 1 6 4 1 , 4 1 , 1 6 2 w 1 d y y 2 9 1 1 4 2 y 2 y y a , / B , g r 5 , q < < 8 q q 5 5 5 5 5 2 6 1 2 1 2 , 2 2 1 1 2 y , 2.",
";.* X , = , , = * = * * : * : : : = - 1 = = - % > > * , , 6 $ G ,.< q , , , = , = ; * * , , - < : 2 1 = : & : : ; - - : , , - M ",
"{ : 1 % : , , 5 : * : : = , , = $ , ; = * = ; * & & & ; 1 2 , 2.o.$ 5 < , * # & & : # * - , 1 % : , * * $ , * , - - 1 ; - 2 - / ",
"_ * < : , : , - 2 = * , , - * = * 1 * 2 * * = > ; > & & : y % 2.o., t = > > & < = * & = , - , , : = : * ; & * : : * $ ; : 1 = 2.",
"_ ; : : : : : , = : = : - - * 1 1 = * ; * 1 : *   * & > < y * / 0., 6 , > ; % & : * = > , , - - , = = : : * 2 % - , 1 : ; 2 = J ",
"Z = : ; , ; : , : = : : = - = = - = = $ = = ; ; & & ; & ; y = / 1., 6 > ; > ; & , : * , 1 , - , - , = : : & % % : - & : ; : - / ",
"Y % , : 1 : : 2 = = & & : = - - - - - - $ * % ; = : % & 1 4 = Y m * 6 , ; ; ; ; ; ; : < 4 - = , , , % * % % * : 2 : , ; ; , $ ..",
"/ @ 1 : : : 1 = : & & ; > & - 1 - 1 - * = - = ; = : : = 1 6 * 2.' , < 5 ; ; ; ; ; , 1 6 * 1 , , : , 6 ; , : * * : : : : : , 1 -.",
"/ = 1 ; ; ; , = : & % & 1 1 = 1 - - * - = = - = * ; * = = 2 1 C >.$ $ < ; & ; & * = = : - - * 1 = , * @ : ; : : = , : , < : < Y ",
"/ = 1 ; ; ; : , % : & : = 1 - = 1 - - = - - = - = - * = - y : Y { , 5 ; ; & & > ; : : : - - * - 4 < : : * * % : : : : , , 1 , Y ",
"2.= 1 , 2 ; * : : , ; : = 1 : 1 - 6 = 4 = 1 1 : w ; : : : , = e./ : 6 , ; > > ; : 1 : , : : : , * , = : $ < * : ; , ; : : 1 = H ",
"e.- 6 1 1 1 2 1 2 , < 1 1 2 1 6 2 1 1 4 1 y 9 2 9 2 > 2 1 6 1 Y 4.* g 1 2 2 2 2 * 5 1 5 4 4 6 6 6 4 5 5 2 , ; , 1 : 2 2 4 , $ %.",
"Y g.1 1 : , , : @ , ; ; 1 , , = * - - 1 = : * ; $ & $ : : : m.-.4.b.: : * : & : * % , , ; < > % , , - $ : + ; % ; $ : , # : z.c ",
"/ V / 2...7.Y } 7.t.P ..w.6.-.Y 2.2.e.M 2.j v S P S S S Z _ 4.t./ / 7.V S ..P ..! | R R >.>.! V u.{ -.%.M / / x i.S 6.4.m %.%._ "
};
